<svg width="640" height="420" viewBox="0 0 640 420" fill="none" xmlns="http://www.w3.org/2000/svg">
  <defs>
    <linearGradient id="bg" x1="58" y1="24" x2="586" y2="390" gradientUnits="userSpaceOnUse">
      <stop stop-color="#17111F"/>
      <stop offset="0.5" stop-color="#241825"/>
      <stop offset="1" stop-color="#0C1018"/>
    </linearGradient>
    <radialGradient id="amber" cx="0" cy="0" r="1" gradientUnits="userSpaceOnUse" gradientTransform="translate(180 298) rotate(-24) scale(238 166)">
      <stop stop-color="#F59E0B" stop-opacity="0.3"/>
      <stop offset="1" stop-color="#F59E0B" stop-opacity="0"/>
    </radialGradient>
    <radialGradient id="pink" cx="0" cy="0" r="1" gradientUnits="userSpaceOnUse" gradientTransform="translate(500 112) rotate(180) scale(228 164)">
      <stop stop-color="#EC4899" stop-opacity="0.28"/>
      <stop offset="1" stop-color="#EC4899" stop-opacity="0"/>
    </radialGradient>
  </defs>
  <rect width="640" height="420" rx="28" fill="url(#bg)"/>
  <rect width="640" height="420" rx="28" fill="url(#amber)"/>
  <rect width="640" height="420" rx="28" fill="url(#pink)"/>
  <g>
    <rect x="86" y="94" width="206" height="222" rx="28" fill="rgba(18,18,27,0.56)" stroke="rgba(255,255,255,0.11)"/>
    <circle cx="152" cy="166" r="18" fill="rgba(245,158,11,0.16)" stroke="#FCD34D" stroke-width="2"/>
    <circle cx="212" cy="146" r="16" fill="rgba(236,72,153,0.16)" stroke="#F9A8D4" stroke-width="2"/>
    <circle cx="234" cy="208" r="20" fill="rgba(251,191,36,0.15)" stroke="#FDE68A" stroke-width="2"/>
    <circle cx="174" cy="226" r="14" fill="rgba(248,250,252,0.18)" stroke="#E2E8F0"/>
    <path d="M170 160L196 152" stroke="#F8FAFC" stroke-width="2.5" stroke-linecap="round"/>
    <path d="M165 177L182 213" stroke="#F8FAFC" stroke-width="2.5" stroke-linecap="round"/>
    <path d="M227 160L228 188" stroke="#F8FAFC" stroke-width="2.5" stroke-linecap="round"/>
    <path d="M190 221L214 212" stroke="#F8FAFC" stroke-width="2.5" stroke-linecap="round"/>
    <path d="M208 156L226 192" stroke="#F8FAFC" stroke-width="2.5" stroke-linecap="round"/>
  </g>
  <g>
    <rect x="330" y="112" width="224" height="176" rx="28" fill="rgba(15,16,24,0.58)" stroke="rgba(255,255,255,0.11)"/>
    <rect x="372" y="142" width="142" height="28" rx="14" fill="rgba(245,158,11,0.12)" stroke="rgba(252,211,77,0.28)"/>
    <path d="M392 190H514" stroke="#FDE68A" stroke-width="7" stroke-linecap="round"/>
    <path d="M392 226H480" stroke="#F9A8D4" stroke-width="6" stroke-linecap="round"/>
    <path d="M392 258H528" stroke="#E2E8F0" stroke-opacity="0.56" stroke-width="4" stroke-linecap="round"/>
    <text x="398" y="160" fill="#FDE68A" font-family="Inter, Arial, sans-serif" font-size="12" letter-spacing="2.2">MÉTODO JOY</text>
  </g>
  <text x="86" y="344" fill="#F8FAFC" font-family="Inter, Arial, sans-serif" font-size="18" letter-spacing="3.2">ALUMED</text>
  <text x="86" y="376" fill="#FBBF24" font-family="Outfit, Arial, sans-serif" font-size="40" font-weight="700">Bioquímica</text>
</svg>
