<svg width="640" height="420" viewBox="0 0 640 420" fill="none" xmlns="http://www.w3.org/2000/svg">
  <defs>
    <linearGradient id="bg" x1="58" y1="22" x2="590" y2="394" gradientUnits="userSpaceOnUse">
      <stop stop-color="#08111F"/>
      <stop offset="0.48" stop-color="#111C34"/>
      <stop offset="1" stop-color="#090C16"/>
    </linearGradient>
    <radialGradient id="g1" cx="0" cy="0" r="1" gradientUnits="userSpaceOnUse" gradientTransform="translate(490 112) rotate(180) scale(228 160)">
      <stop stop-color="#38BDF8" stop-opacity="0.4"/>
      <stop offset="1" stop-color="#38BDF8" stop-opacity="0"/>
    </radialGradient>
    <radialGradient id="g2" cx="0" cy="0" r="1" gradientUnits="userSpaceOnUse" gradientTransform="translate(168 316) rotate(-24) scale(252 182)">
      <stop stop-color="#0EA5E9" stop-opacity="0.22"/>
      <stop offset="1" stop-color="#0EA5E9" stop-opacity="0"/>
    </radialGradient>
  </defs>
  <rect width="640" height="420" rx="28" fill="url(#bg)"/>
  <rect width="640" height="420" rx="28" fill="url(#g1)"/>
  <rect width="640" height="420" rx="28" fill="url(#g2)"/>
  <g opacity="0.14">
    <circle cx="520" cy="86" r="128" stroke="#93C5FD" stroke-dasharray="8 12"/>
    <circle cx="520" cy="86" r="88" stroke="#67E8F9" stroke-dasharray="4 12"/>
  </g>
  <g>
    <rect x="86" y="84" width="214" height="238" rx="28" fill="rgba(15,23,42,0.45)" stroke="rgba(255,255,255,0.1)"/>
    <path d="M194 124C172 124 154 141.333 154 162C154 175.333 159 186 169 194C177 200.4 181.667 208.733 183 219H205C206.333 208.733 211 200.4 219 194C229 186 234 175.333 234 162C234 141.333 216 124 194 124Z" fill="rgba(56,189,248,0.12)" stroke="#7DD3FC" stroke-width="3"/>
    <path d="M176 234H212" stroke="#E2E8F0" stroke-width="3" stroke-linecap="round"/>
    <path d="M180 252H208" stroke="#E2E8F0" stroke-width="3" stroke-linecap="round"/>
    <path d="M194 220V282" stroke="#C4B5FD" stroke-width="4" stroke-linecap="round"/>
    <path d="M158 244L194 232L230 244" stroke="#93C5FD" stroke-width="3" stroke-linecap="round"/>
    <path d="M162 272L194 258L226 272" stroke="#93C5FD" stroke-width="3" stroke-linecap="round"/>
  </g>
  <g>
    <rect x="334" y="98" width="220" height="190" rx="28" fill="rgba(8,15,32,0.55)" stroke="rgba(255,255,255,0.11)"/>
    <path d="M388 154H500" stroke="#E2E8F0" stroke-opacity="0.72" stroke-width="7" stroke-linecap="round"/>
    <path d="M388 192H520" stroke="#7DD3FC" stroke-width="7" stroke-linecap="round"/>
    <path d="M388 230H486" stroke="#BFDBFE" stroke-opacity="0.56" stroke-width="5" stroke-linecap="round"/>
    <rect x="392" y="116" width="92" height="22" rx="11" fill="rgba(56,189,248,0.12)" stroke="rgba(125,211,252,0.28)"/>
    <text x="410" y="131" fill="#BAE6FD" font-family="Inter, Arial, sans-serif" font-size="11" letter-spacing="2">ATLAS</text>
  </g>
  <text x="86" y="342" fill="#F8FAFC" font-family="Inter, Arial, sans-serif" font-size="18" letter-spacing="3.2">ALUMED</text>
  <text x="86" y="374" fill="#93C5FD" font-family="Outfit, Arial, sans-serif" font-size="42" font-weight="700">Anatomía</text>
</svg>
